<svg width="30" height="30" viewBox="0 0 30 30" fill="none" xmlns="http://www.w3.org/2000/svg">
<path d="M7.49998 11.5C7.49998 7.35786 10.8578 4 15 4V4C19.1421 4 22.5 7.35786 22.5 11.5V13.7887C22.5 14.2801 22.5 14.5259 22.5146 14.7672C22.5824 15.8881 22.8854 16.9823 23.404 17.9784C23.5157 18.1928 23.6421 18.4035 23.8949 18.8249L24.5867 19.9779C25.2505 21.0842 25.5824 21.6374 25.4278 22.0798C25.3884 22.1928 25.3289 22.2978 25.2523 22.3898C24.9525 22.75 24.3074 22.75 23.0172 22.75H6.98285C5.69265 22.75 5.04755 22.75 4.74768 22.3898C4.67112 22.2978 4.61168 22.1928 4.5722 22.0799C4.4176 21.6374 4.7495 21.0842 5.4133 19.9779L6.10507 18.8249C6.35791 18.4035 6.48433 18.1928 6.59596 17.9784C7.11454 16.9823 7.41758 15.8881 7.48539 14.7672C7.49998 14.5259 7.49998 14.2802 7.49998 13.7887V11.5Z" fill="#D9D9D9"/>
<path d="M17.975 24C18.0578 24 18.1256 24.0673 18.1194 24.1499C18.0737 24.7582 17.7514 25.3344 17.2097 25.7678C16.6237 26.2366 15.8288 26.5 15 26.5C14.1712 26.5 13.3763 26.2366 12.7903 25.7678C12.2486 25.3344 11.9263 24.7582 11.8806 24.1499C11.8744 24.0673 11.9422 24 12.025 24L15 24L17.975 24Z" fill="#D9D9D9"/>
</svg>
