<svg width="34" height="34" viewBox="0 0 34 34" fill="none" xmlns="http://www.w3.org/2000/svg">
<path d="M13.6511 6.87722C14.9214 3.79615 15.5566 2.25562 16.5885 2.04211C16.8598 1.98596 17.1402 1.98596 17.4116 2.04211C18.4435 2.25562 19.0786 3.79615 20.3489 6.87722C21.0713 8.62937 21.4325 9.50544 22.1084 10.1013C22.298 10.2684 22.5038 10.4173 22.7229 10.5458C23.504 11.0038 24.4792 11.0888 26.4295 11.2587C29.731 11.5464 31.3818 11.6903 31.8859 12.606C31.9903 12.7956 32.0613 13.001 32.0959 13.2135C32.2631 14.2395 31.0495 15.3136 28.6224 17.462L27.9484 18.0586C26.8136 19.063 26.2463 19.5652 25.9181 20.1919C25.7212 20.5679 25.5893 20.9728 25.5274 21.3904C25.4243 22.0866 25.5904 22.8151 25.9227 24.2722L26.0415 24.7928C26.6374 27.4058 26.9353 28.7123 26.5634 29.3545C26.2293 29.9314 25.6139 30.3007 24.9341 30.3323C24.1773 30.3674 23.111 29.5221 20.9782 27.8313C19.5731 26.7173 18.8706 26.1604 18.0907 25.9428C17.3779 25.744 16.6221 25.744 15.9094 25.9428C15.1295 26.1604 14.4269 26.7173 13.0218 27.8313C10.8891 29.5221 9.82275 30.3674 9.06595 30.3323C8.38616 30.3007 7.77078 29.9314 7.43669 29.3545C7.06475 28.7123 7.3627 27.4058 7.9586 24.7928L8.07732 24.2722C8.40961 22.8151 8.57575 22.0866 8.47265 21.3904C8.4108 20.9728 8.27881 20.5679 8.08195 20.1919C7.75378 19.5652 7.18642 19.063 6.05169 18.0586L5.37769 17.462C2.95056 15.3136 1.737 14.2395 1.90413 13.2135C1.93874 13.001 2.00972 12.7956 2.11413 12.606C2.61823 11.6903 4.26901 11.5464 7.57055 11.2587C9.52087 11.0888 10.496 11.0038 11.2772 10.5458C11.4963 10.4173 11.7021 10.2684 11.8917 10.1013C12.5675 9.50544 12.9287 8.62937 13.6511 6.87722Z" fill="#466FFF"/>
</svg>
