<svg width="30" height="30" viewBox="0 0 30 30" fill="none" xmlns="http://www.w3.org/2000/svg">
<path d="M4.28571 13.9972C4.28571 12.9881 4.28571 12.4836 4.50737 12.0528C4.72904 11.6221 5.13961 11.3288 5.96075 10.7423L13.8375 5.11605C14.3989 4.7151 14.6795 4.51462 15 4.51462C15.3205 4.51462 15.6011 4.7151 16.1625 5.11605L24.0392 10.7423C24.8604 11.3288 25.2709 11.6221 25.4926 12.0528C25.7143 12.4836 25.7143 12.9881 25.7143 13.9972V23.7143C25.7143 24.6571 25.7143 25.1285 25.4214 25.4214C25.1285 25.7143 24.6571 25.7143 23.7143 25.7143H6.2857C5.3429 25.7143 4.87149 25.7143 4.5786 25.4214C4.28571 25.1285 4.28571 24.6571 4.28571 23.7143V13.9972Z" fill="#466FFF"/>
<rect x="12.8571" y="19.2857" width="4.28571" height="6.42857" fill="white"/>
</svg>
