<svg width="34" height="34" viewBox="0 0 34 34" fill="none" xmlns="http://www.w3.org/2000/svg">
<path d="M8.65291 16.8685L13.1144 18.3557L13.1144 18.3557C14.0455 18.666 14.511 18.8212 14.8449 19.155C15.1787 19.4889 15.3339 19.9544 15.6442 20.8855L17.1314 25.347C18.7002 30.0534 19.4846 32.4066 20.9261 32.4066C22.3677 32.4066 23.1521 30.0534 24.7209 25.347L31.49 5.03976C32.0419 3.38397 32.3179 2.55608 31.8808 2.11906C31.4438 1.68205 30.6159 1.95801 28.9601 2.50994L8.65291 9.27902C3.94648 10.8478 1.59326 11.6322 1.59326 13.0737C1.59326 14.5153 3.94648 15.2997 8.65291 16.8685Z" fill="#9EFF7C"/>
<path d="M14 20L25 9" stroke="white"/>
</svg>
