<svg width="30" height="30" viewBox="0 0 30 30" fill="none" xmlns="http://www.w3.org/2000/svg">
<path d="M4.25 11.75C4.25 9.85025 4.25106 8.47573 4.39199 7.42754C4.53098 6.39373 4.79772 5.75253 5.27513 5.27513C5.75253 4.79772 6.39373 4.53098 7.42754 4.39199C8.47573 4.25106 9.85025 4.25 11.75 4.25H18.25C20.1498 4.25 21.5243 4.25106 22.5725 4.39199C23.6063 4.53098 24.2475 4.79772 24.7249 5.27513C25.2023 5.75253 25.469 6.39373 25.608 7.42754C25.7489 8.47573 25.75 9.85025 25.75 11.75V18.25C25.75 20.1498 25.7489 21.5243 25.608 22.5725C25.469 23.6063 25.2023 24.2475 24.7249 24.7249C24.2475 25.2023 23.6063 25.469 22.5725 25.608C21.5243 25.7489 20.1498 25.75 18.25 25.75H11.75C9.85025 25.75 8.47573 25.7489 7.42754 25.608C6.39373 25.469 5.75253 25.2023 5.27513 24.7249C4.79772 24.2475 4.53098 23.6063 4.39199 22.5725C4.25106 21.5243 4.25 20.1498 4.25 18.25V11.75Z" fill="#D9D9D9" stroke="#D9D9D9"/>
<path d="M15 10L15 20" stroke="white" stroke-linejoin="round"/>
<path d="M20 15L10 15" stroke="white" stroke-linejoin="round"/>
</svg>
